<?xml version="1.0" encoding="UTF-8" standalone="no"?><!-- Generator: Gravit.io --><svg xmlns="http://www.w3.org/2000/svg" xmlns:xlink="http://www.w3.org/1999/xlink" style="isolation:isolate" viewBox="0 0 36.6 37" width="36.6pt" height="37pt"><defs><clipPath id="_clipPath_dmkI8qqZ1K1HqkIPKbkBAi3FNYfsy5mO"><rect width="36.6" height="37"/></clipPath></defs><g clip-path="url(#_clipPath_dmkI8qqZ1K1HqkIPKbkBAi3FNYfsy5mO)"><g><g><g><g><g><g><path d=" M 32.2 29.8 C 32.4 30 32.6 29.9 32.7 29.8 C 35.1 26.7 36.6 22.8 36.6 18.5 C 36.6 14.1 35.1 10.1 32.5 7 C 32.4 6.8 32.1 6.8 32 7 L 30.6 8.4 C 30.5 8.5 30.5 8.7 30.6 8.9 C 32.3 11.1 33.5 13.7 33.8 16.6 C 33.8 16.7 33.7 16.8 33.6 16.8 L 30.6 16.8 C 30.5 16.8 30.4 16.7 30.4 16.6 C 29.4 10.4 23.8 5.7 17.2 6.2 C 11.2 6.8 6.4 11.6 6 17.6 C 5.8 20.5 6.6 23.2 8.1 25.5 C 8.2 25.7 8.5 25.7 8.7 25.5 L 10.1 24.1 C 10.2 24 10.2 23.8 10.1 23.7 C 9 22 8.4 19.8 8.7 17.6 C 9.2 13 13.1 9.3 17.7 9.1 C 23.2 8.8 27.8 13.2 27.8 18.7 C 27.8 23.4 24.5 27.2 20.1 28.1 C 20 28.1 19.8 28 19.8 27.9 L 19.8 24.8 C 19.8 24.7 19.9 24.6 19.9 24.6 C 22.5 23.9 24.3 21.5 24.3 18.7 C 24.3 17.7 24.1 16.7 23.6 15.9 C 23.5 15.8 23.4 15.8 23.3 15.9 L 21.6 17.6 C 21.5 17.7 21.4 17.9 21.5 18.1 C 21.6 18.7 21.6 19.3 21.4 19.9 C 21 21 20.1 21.8 19 22.1 C 16.4 22.7 14.1 20.4 14.8 17.9 C 15.1 16.8 16 15.8 17.1 15.5 C 17.7 15.3 18.4 15.3 19 15.5 C 19.2 15.5 19.4 15.5 19.5 15.4 L 21.2 13.7 C 21.3 13.6 21.3 13.5 21.2 13.4 C 20.1 12.8 18.7 12.5 17.3 12.7 C 14.7 13.1 12.6 15.2 12.2 17.8 C 11.7 21.2 13.9 24.1 17 24.8 C 17.1 24.8 17.2 24.9 17.2 25 L 17.2 28.1 C 17.2 28.2 17.1 28.3 17 28.3 C 15.5 28.1 14.2 27.6 13 26.8 C 12.9 26.7 12.7 26.7 12.5 26.8 L 11 27.9 C 10.8 28.1 10.9 28.3 11 28.5 C 13 30 15.5 30.8 18.2 30.8 C 24.6 30.8 29.8 25.9 30.4 19.7 C 30.4 19.6 30.5 19.5 30.6 19.5 L 33.5 19.5 C 33.6 19.5 33.7 19.6 33.7 19.7 C 33.5 22.7 32.3 25.6 30.6 27.9 C 30.5 28 30.5 28.2 30.6 28.4 L 32.2 29.8 L 32.2 29.8 L 32.2 29.8 Z " fill-rule="evenodd" fill="rgb(255,60,106)"/><path d=" M 18.3 2.7 C 21.8 2.7 25.1 3.9 27.7 5.9 C 27.8 6 28 6 28.1 5.9 L 29.5 4.5 C 29.7 4.3 29.6 4.1 29.5 4 C 26.4 1.6 22.5 0 18.3 0 C 9 0 1.3 7.1 0.1 15.8 C 0.1 16 0.2 16.2 0.5 16.2 L 2.5 16.2 C 2.7 16.2 2.8 16.1 2.9 15.9 C 3.9 8.5 10.4 2.7 18.3 2.7 L 18.3 2.7 L 18.3 2.7 Z " fill-rule="evenodd" fill="rgb(255,60,106)"/><path d=" M 28.4 30.8 C 28.3 30.7 28.1 30.7 27.9 30.8 C 25.2 32.9 21.9 34 18.2 34 C 10.1 34 3.5 27.9 2.6 19.9 C 2.6 19.7 2.4 19.6 2.2 19.6 L 0.2 19.6 C 0.2 19.6 0 19.8 0 20 C 0.9 29.4 8.7 36.7 18.3 36.7 C 22.7 36.7 26.7 35.2 29.8 32.7 C 30 32.6 30 32.3 29.8 32.2 L 28.4 30.8 L 28.4 30.8 L 28.4 30.8 Z " fill-rule="evenodd" fill="rgb(255,60,106)"/></g></g></g></g></g></g></g></svg>